{
  "accessors": [
    {
      "bufferView": 2,
      "componentType": 5126,
      "count": 5639,
      "max": [
        390.89654541015625,
        471.64321899414062,
        787.967529296875
      ],
      "min": [
        -514.87335205078125,
        -543.33721923828125,
        -1115.64404296875
      ],
      "type": "VEC3"
    },
    {
      "bufferView": 2,
      "byteOffset": 67668,
      "componentType": 5126,
      "count": 5639,
      "max": [
        1,
        1,
        1
      ],
      "min": [
        -1,
        -1,
        -1
      ],
      "type": "VEC3"
    },
    {
      "bufferView": 3,
      "componentType": 5126,
      "count": 5639,
      "max": [
        1,
        1,
        0.99993431568145752,
        1
      ],
      "min": [
        -1,
        -1,
        -0.99995279312133789,
        -1
      ],
      "type": "VEC4"
    },
    {
      "bufferView": 1,
      "componentType": 5126,
      "count": 5639,
      "max": [
        1.7796459197998047,
        0.98865336179733276
      ],
      "min": [
        0.00050000002374872565,
        0.00050000002374872565
      ],
      "type": "VEC2"
    },
    {
      "bufferView": 0,
      "componentType": 5125,
      "count": 18219,
      "max": [
        5638
      ],
      "min": [
        0
      ],
      "type": "SCALAR"
    },
    {
      "bufferView": 2,
      "byteOffset": 135336,
      "componentType": 5126,
      "count": 6804,
      "max": [
        443.62396240234375,
        520.436767578125,
        556.6800537109375
      ],
      "min": [
        -567.6309814453125,
        -592.024658203125,
        -1254.809814453125
      ],
      "type": "VEC3"
    },
    {
      "bufferView": 2,
      "byteOffset": 216984,
      "componentType": 5126,
      "count": 6804,
      "max": [
        1,
        0.99996227025985718,
        0.99988794326782227
      ],
      "min": [
        -1,
        -0.99995023012161255,
        -0.99984848499298096
      ],
      "type": "VEC3"
    },
    {
      "bufferView": 3,
      "byteOffset": 90224,
      "componentType": 5126,
      "count": 6804,
      "max": [
        1,
        0.99999004602432251,
        0.99984806776046753,
        1
      ],
      "min": [
        -1,
        -0.99995023012161255,
        -0.99984902143478394,
        1
      ],
      "type": "VEC4"
    },
    {
      "bufferView": 1,
      "byteOffset": 45112,
      "componentType": 5126,
      "count": 6804,
      "max": [
        1.9954898357391357,
        0.99950003623962402
      ],
      "min": [
        0.00050000002374872565,
        0.00050000002374872565
      ],
      "type": "VEC2"
    },
    {
      "bufferView": 0,
      "byteOffset": 72876,
      "componentType": 5125,
      "count": 16128,
      "max": [
        6803
      ],
      "min": [
        0
      ],
      "type": "SCALAR"
    }
  ],
  "asset": {
    "extras": {
      "author": "José Baltazar (https://sketchfab.com/josebalta)",
      "license": "CC-BY-4.0 (http://creativecommons.org/licenses/by/4.0/)",
      "source": "https://sketchfab.com/3d-models/water-tower-1db0363400074e0ca28f32845b4b70e7",
      "title": "Water Tower"
    },
    "generator": "Sketchfab-7.32.0",
    "version": "2.0"
  },
  "bufferViews": [
    {
      "buffer": 0,
      "byteLength": 137388,
      "byteOffset": 0,
      "name": "floatBufferViews",
      "target": 34963
    },
    {
      "buffer": 0,
      "byteLength": 99544,
      "byteOffset": 137388,
      "byteStride": 8,
      "name": "floatBufferViews",
      "target": 34962
    },
    {
      "buffer": 0,
      "byteLength": 298632,
      "byteOffset": 236932,
      "byteStride": 12,
      "name": "floatBufferViews",
      "target": 34962
    },
    {
      "buffer": 0,
      "byteLength": 199088,
      "byteOffset": 535564,
      "byteStride": 16,
      "name": "floatBufferViews",
      "target": 34962
    }
  ],
  "buffers": [
    {
      "byteLength": 734652,
      "uri": "scene.bin"
    }
  ],
  "images": [
    {
      "uri": "textures/water_towet_set1_baseColor.jpeg"
    },
    {
      "uri": "textures/water_towet_set1_metallicRoughness.png"
    },
    {
      "uri": "textures/water_towet_set1_normal.png"
    },
    {
      "uri": "textures/water_towet_set2_baseColor.jpeg"
    },
    {
      "uri": "textures/water_towet_set2_metallicRoughness.png"
    },
    {
      "uri": "textures/water_towet_set2_normal.png"
    }
  ],
  "materials": [
    {
      "doubleSided": true,
      "name": "water_towet_set1",
      "normalTexture": {
        "index": 2,
        "scale": 1,
        "texCoord": 0
      },
      "occlusionTexture": {
        "index": 1,
        "strength": 1,
        "texCoord": 0
      },
      "pbrMetallicRoughness": {
        "baseColorFactor": [
          1,
          1,
          1,
          1
        ],
        "baseColorTexture": {
          "index": 0,
          "texCoord": 0
        },
        "metallicFactor": 1,
        "metallicRoughnessTexture": {
          "index": 1,
          "texCoord": 0
        },
        "roughnessFactor": 1
      }
    },
    {
      "doubleSided": true,
      "emissiveFactor": [
        0,
        0,
        0
      ],
      "name": "water_towet_set2",
      "normalTexture": {
        "index": 5,
        "scale": 1,
        "texCoord": 0
      },
      "occlusionTexture": {
        "index": 4,
        "strength": 1,
        "texCoord": 0
      },
      "pbrMetallicRoughness": {
        "baseColorFactor": [
          1,
          1,
          1,
          1
        ],
        "baseColorTexture": {
          "index": 3,
          "texCoord": 0
        },
        "metallicFactor": 1,
        "metallicRoughnessTexture": {
          "index": 4,
          "texCoord": 0
        },
        "roughnessFactor": 1
      }
    }
  ],
  "meshes": [
    {
      "name": "water_tower_01_water_towet_set1_0",
      "primitives": [
        {
          "attributes": {
            "NORMAL": 1,
            "POSITION": 0,
            "TANGENT": 2,
            "TEXCOORD_0": 3
          },
          "indices": 4,
          "material": 0,
          "mode": 4
        }
      ]
    },
    {
      "name": "water_tower_01_water_towet_set2_0",
      "primitives": [
        {
          "attributes": {
            "NORMAL": 6,
            "POSITION": 5,
            "TANGENT": 7,
            "TEXCOORD_0": 8
          },
          "indices": 9,
          "material": 1,
          "mode": 4
        }
      ]
    }
  ],
  "nodes": [
    {
      "children": [
        1
      ],
      "name": "RootNode (gltf orientation matrix)",
      "rotation": [
        -0.70710678118654746,
        -0,
        -0,
        0.70710678118654757
      ]
    },
    {
      "children": [
        2
      ],
      "name": "RootNode (model correction matrix)"
    },
    {
      "children": [
        3
      ],
      "matrix": [
        1,
        0,
        0,
        0,
        0,
        0,
        1,
        0,
        0,
        -1,
        0,
        0,
        0,
        0,
        0,
        1
      ],
      "name": "water_tower_01.fbx"
    },
    {
      "children": [
        4
      ],
      "name": "RootNode"
    },
    {
      "children": [
        5
      ],
      "matrix": [
        1,
        0,
        0,
        0,
        0,
        2.2204460492503131e-16,
        -1,
        0,
        0,
        1,
        2.2204460492503131e-16,
        0,
        0,
        0,
        0,
        1
      ],
      "name": "water_tower_01"
    },
    {
      "children": [
        6,
        7
      ],
      "matrix": [
        1,
        0,
        -0,
        0,
        0,
        1,
        0,
        0,
        0,
        0,
        1,
        0,
        62.003509521484375,
        35.793899536132812,
        1254.625732421875,
        1
      ],
      "name": ""
    },
    {
      "mesh": 0,
      "name": "water_tower_01_water_towet_set1_0"
    },
    {
      "mesh": 1,
      "name": "water_tower_01_water_towet_set2_0"
    }
  ],
  "samplers": [
    {
      "magFilter": 9729,
      "minFilter": 9987,
      "wrapS": 10497,
      "wrapT": 10497
    }
  ],
  "scene": 0,
  "scenes": [
    {
      "name": "OSG_Scene",
      "nodes": [
        0
      ]
    }
  ],
  "textures": [
    {
      "sampler": 0,
      "source": 0
    },
    {
      "sampler": 0,
      "source": 1
    },
    {
      "sampler": 0,
      "source": 2
    },
    {
      "sampler": 0,
      "source": 3
    },
    {
      "sampler": 0,
      "source": 4
    },
    {
      "sampler": 0,
      "source": 5
    }
  ]
}

